# xmcd
#
# Track frame offsets: 
#        150
#        11798
#        23426
#        35636
#        47508
#        60117
#        73777
#        88488
#        100845
#        113764
#        125349
#        138087
#        152281
#        166114
#        179107
#        192522
#        205003
#        218489
#
# Disc length: 3102 seconds
#
# Revision: 0
# Processed by: cddbd v1.5.2PL0 Copyright (c) Steve Scherf et al.
# Submitted via: ExactAudioCopy v0.99pb5
#
DISCID=ea0c1c12
DTITLE=Various Artist - Smithsonian Collection of Classic Country Music Disc 
DTITLE=04
DYEAR=1981
DGENRE=Country
TTITLE0=Ernest Tubb - Walking the Floor Over You
TTITLE1=Wiley Walker and Gene Sullivan - When My Blue Moon Turns to Go
TTITLE1=ld Again
TTITLE2=Ted Daffan's Texans - Born To Lose
TTITLE3=Elton Britt - There's a Star Spangled Banner Waving Somewhere
TTITLE4=Al Dexter - Pistol Packin' Mama
TTITLE5=Tex Ritter - Have I Stayed Away Too Long
TTITLE6=Milly O'Day - Teardrops Falling in the Snow
TTITLE7=Jack Guthrie - Oklahoma Hills
TTITLE8=Bailes Brothers - Dust on the Bible
TTITLE9=Roy Acuff - Wabash Cannon Ball
TTITLE10=Merle Travis - I Am a Pilgrim
TTITLE11=Tex Ritter - Rye Whiskey
TTITLE12=Eddy Arnold - The Cattle Call
TTITLE13=Tex Williams - Smoke! Smoke! Smoke! (That Cigarette)
TTITLE14=Johnny and Jack - What About You
TTITLE15=Little Jimmy Dickens - Take an Old Cold Tater (And Wait)
TTITLE16=Maddox Brothers and Rose - Philadelphia Lawyer
TTITLE17=Red Foley - Peace in the Valley
EXTD=
EXTT0=
EXTT1=
EXTT2=
EXTT3=
EXTT4=
EXTT5=
EXTT6=
EXTT7=
EXTT8=
EXTT9=
EXTT10=
EXTT11=
EXTT12=
EXTT13=
EXTT14=
EXTT15=
EXTT16=
EXTT17=
PLAYORDER=
